<svg width="28" height="28" viewBox="0 0 28 28" fill="none" xmlns="http://www.w3.org/2000/svg">
<g clip-path="url(#clip0_1453_18435)">
<path fill-rule="evenodd" clip-rule="evenodd" d="M14 28C21.732 28 28 21.732 28 14C28 6.26801 21.732 0 14 0C6.26801 0 0 6.26801 0 14C0 21.732 6.26801 28 14 28ZM21.0943 11.0259C21.6609 10.4215 21.6303 9.47229 21.0259 8.90569C20.4215 8.3391 19.4723 8.36972 18.9057 8.97409L12.5 15.8068L9.09431 12.1741C8.52771 11.5697 7.57846 11.5391 6.97409 12.1057C6.36972 12.6723 6.3391 13.6215 6.90569 14.2259L11.4057 19.0259C11.6893 19.3284 12.0854 19.5 12.5 19.5C12.9146 19.5 13.3107 19.3284 13.5943 19.0259L21.0943 11.0259Z" fill="#00E1E6"/>
</g>
<defs>
<clipPath id="clip0_1453_18435">
<rect width="28" height="28" rx="14" fill="white"/>
</clipPath>
</defs>
</svg>
