<svg width="19" height="18" viewBox="0 0 19 18" fill="none" xmlns="http://www.w3.org/2000/svg">
<path d="M4.01525 10.3276C4.04553 9.11642 4.55107 7.96578 5.42266 7.12424L6.33066 6.24756C6.63046 5.95809 6.90397 5.64258 7.14797 5.30473L7.26105 5.14816C7.73789 4.48792 7.96282 3.67888 7.89519 2.86726L7.8362 2.15943C7.82508 2.02595 7.95533 1.92541 8.08164 1.96999L9.10843 2.33239C10.2731 2.74345 11.1172 3.76188 11.305 4.9826L11.3303 5.14669C11.3599 5.33933 11.3587 5.53547 11.3266 5.72773L11.1422 6.834C11.0678 7.28079 11.4123 7.6875 11.8653 7.6875C12.3962 7.6875 12.8022 7.21426 12.7215 6.68951L12.5327 5.4626C12.522 5.39284 12.6054 5.34885 12.6569 5.39712L13.9255 6.58639C14.93 7.52817 15.5 8.84375 15.5 10.2207C15.5 13.378 12.9405 15.9375 9.78325 15.9375H9.48666C6.41038 15.9375 3.93836 13.4029 4.01525 10.3276Z" fill="#F9FAFB"/>
</svg>
