<svg width="25" height="24" viewBox="0 0 25 24" fill="none" xmlns="http://www.w3.org/2000/svg">
<path d="M21.3382 4.60987C20.8274 4.09888 20.221 3.69352 19.5535 3.41696C18.8861 3.14039 18.1707 2.99805 17.4482 2.99805C16.7257 2.99805 16.0103 3.14039 15.3428 3.41696C14.6754 3.69352 14.0689 4.09888 13.5582 4.60987L12.4982 5.66987L11.4382 4.60987C10.4065 3.57818 9.0072 2.99858 7.54817 2.99858C6.08913 2.99858 4.68986 3.57818 3.65817 4.60987C2.62647 5.64156 2.04688 7.04084 2.04688 8.49987C2.04687 9.95891 2.62647 11.3582 3.65817 12.3899L4.71817 13.4499L12.4982 21.2299L20.2782 13.4499L21.3382 12.3899C21.8492 11.8791 22.2545 11.2727 22.5311 10.6052C22.8076 9.93777 22.95 9.22236 22.95 8.49987C22.95 7.77738 22.8076 7.06198 22.5311 6.39452C22.2545 5.72706 21.8492 5.12063 21.3382 4.60987Z" stroke="white" stroke-width="1.5" stroke-linecap="round" stroke-linejoin="round"/>
</svg>
