<svg width="40" height="43" viewBox="0 0 40 43" fill="none" xmlns="http://www.w3.org/2000/svg">
<g filter="url(#filter0_d_1840_11330)">
<path fill-rule="evenodd" clip-rule="evenodd" d="M33.8884 8.47099C30.5817 4.95498 25.1912 4.95498 21.8844 8.47099L20.0272 10.4457L18.1247 8.47099C14.8179 4.95498 9.42745 4.95498 6.12069 8.47099C3.6791 11.0671 3.04029 14.8711 4.20428 18.0992H8.42593L10.5706 14.1673L12.7671 14.1705L16.9953 21.9765L18.7848 18.0992H25.0013V20.5992H20.3844L18.2196 25.2897L15.9855 25.3612L11.6641 17.3833L9.91001 20.5992H5.57708C5.74709 20.8179 5.9283 21.03 6.12069 21.2346L7.97792 23.2093L19.9819 35.9729L31.9859 23.2093L33.8431 21.2346C34.0918 20.9737 34.322 20.7007 34.5338 20.4173H28.3346V17.9173H35.8511C36.9443 14.7291 36.2843 11.0185 33.8884 8.47099Z" fill="white"/>
</g>
<defs>
<filter id="filter0_d_1840_11330" x="-3.33333" y="0" width="46.6667" height="46.6667" filterUnits="userSpaceOnUse" color-interpolation-filters="sRGB">
<feFlood flood-opacity="0" result="BackgroundImageFix"/>
<feColorMatrix in="SourceAlpha" type="matrix" values="0 0 0 0 0 0 0 0 0 0 0 0 0 0 0 0 0 0 127 0" result="hardAlpha"/>
<feOffset dy="3.33333"/>
<feGaussianBlur stdDeviation="1.66667"/>
<feComposite in2="hardAlpha" operator="out"/>
<feColorMatrix type="matrix" values="0 0 0 0 0 0 0 0 0 0 0 0 0 0 0 0 0 0 0.25 0"/>
<feBlend mode="normal" in2="BackgroundImageFix" result="effect1_dropShadow_1840_11330"/>
<feBlend mode="normal" in="SourceGraphic" in2="effect1_dropShadow_1840_11330" result="shape"/>
</filter>
</defs>
</svg>
