<svg width="40" height="43" viewBox="0 0 40 43" fill="none" xmlns="http://www.w3.org/2000/svg">
<g filter="url(#filter0_d_1840_11564)">
<path d="M7.81166 22.9505C7.87895 20.259 9.00238 17.7021 10.9392 15.832L12.957 13.8838C13.6232 13.2405 14.231 12.5394 14.7733 11.7886L15.0246 11.4407C16.0842 9.97347 16.5841 8.17561 16.4338 6.37202L16.3027 4.79905C16.278 4.50243 16.5674 4.27902 16.8481 4.37808L19.1298 5.18341C21.718 6.09688 23.5938 8.36006 24.0111 11.0728L24.0672 11.4374C24.1331 11.8655 24.1304 12.3014 24.0592 12.7286L23.6494 15.187C23.484 16.1798 24.2496 17.0837 25.2562 17.0837C26.436 17.0837 27.3382 16.032 27.1588 14.8659L26.7393 12.1394C26.7155 11.9844 26.901 11.8867 27.0154 11.9939L29.8344 14.6367C32.0668 16.7296 33.3333 19.6531 33.3333 22.7131C33.3333 29.7293 27.6456 35.417 20.6294 35.417H19.9704C13.1342 35.417 7.64081 29.7846 7.81166 22.9505Z" fill="#F9FAFB"/>
</g>
<defs>
<filter id="filter0_d_1840_11564" x="-3.33333" y="0" width="46.6667" height="46.6667" filterUnits="userSpaceOnUse" color-interpolation-filters="sRGB">
<feFlood flood-opacity="0" result="BackgroundImageFix"/>
<feColorMatrix in="SourceAlpha" type="matrix" values="0 0 0 0 0 0 0 0 0 0 0 0 0 0 0 0 0 0 127 0" result="hardAlpha"/>
<feOffset dy="3.33333"/>
<feGaussianBlur stdDeviation="1.66667"/>
<feComposite in2="hardAlpha" operator="out"/>
<feColorMatrix type="matrix" values="0 0 0 0 0 0 0 0 0 0 0 0 0 0 0 0 0 0 0.25 0"/>
<feBlend mode="normal" in2="BackgroundImageFix" result="effect1_dropShadow_1840_11564"/>
<feBlend mode="normal" in="SourceGraphic" in2="effect1_dropShadow_1840_11564" result="shape"/>
</filter>
</defs>
</svg>
