<svg width="19" height="18" viewBox="0 0 19 18" fill="none" xmlns="http://www.w3.org/2000/svg">
<path fill-rule="evenodd" clip-rule="evenodd" d="M15.7482 3.81165C14.2602 2.22945 11.8345 2.22945 10.3464 3.81165L9.51068 4.70028L8.65454 3.81165C7.1665 2.22945 4.74079 2.22945 3.25275 3.81165C2.15403 4.97989 1.86657 6.69169 2.39036 8.14435H4.2901L5.25521 6.375L6.24363 6.37644L8.14633 9.88914L8.95162 8.14435H11.749V9.26935H9.67143L8.69725 11.3801L7.69192 11.4123L5.7473 7.8222L4.95794 9.26935H3.00813C3.08463 9.36777 3.16617 9.4632 3.25275 9.55526L4.0885 10.4439L9.49029 16.1875L14.8921 10.4439L15.7278 9.55526C15.8397 9.43789 15.9433 9.31503 16.0386 9.1875H13.249V8.0625H16.6314C17.1234 6.62778 16.8264 4.95802 15.7482 3.81165Z" fill="white"/>
</svg>
